<?xml version="1.0" encoding="UTF-8"?>
<!-- Generator: Adobe Illustrator 24.1.2, SVG Export Plug-In . SVG Version: 6.00 Build 0)  -->
<svg version="1.1" id="Слой_1" xmlns="http://www.w3.org/2000/svg" xmlns:xlink="http://www.w3.org/1999/xlink" x="0px" y="0px" viewBox="0 0 841.89 595.28" style="enable-background:new 0 0 841.89 595.28;" xml:space="preserve">
<style type="text/css">
	.st0{fill-rule:evenodd;clip-rule:evenodd;fill:#504F53;}
	.st1{fill:#00AFCB;}
	.st2{fill:#504F53;}
	.st3{fill-rule:evenodd;clip-rule:evenodd;fill:#00AFCB;}
</style>
<g>
	<path class="st0" d="M814.65,266.4c-10.46,0-18.95-8.48-18.95-18.95c0-10.46,8.49-18.95,18.95-18.95   c10.47,0,18.95,8.48,18.95,18.95C833.6,257.92,825.12,266.4,814.65,266.4L814.65,266.4z M814.65,261.74   c7.89,0,14.29-6.4,14.29-14.29c0-7.89-6.4-14.29-14.29-14.29c-7.89,0-14.28,6.4-14.28,14.29   C800.37,255.34,806.76,261.74,814.65,261.74L814.65,261.74z M808.17,237.62c0.44-0.08,0.91-0.15,1.42-0.22   c0.51-0.07,1.01-0.12,1.52-0.16c0.51-0.04,1-0.07,1.48-0.09c0.48-0.02,0.92-0.03,1.32-0.03c0.94,0,1.86,0.09,2.77,0.26   c0.91,0.17,1.72,0.47,2.44,0.89c0.72,0.42,1.29,1,1.72,1.74c0.43,0.74,0.65,1.66,0.65,2.77c0,1.65-0.38,2.99-1.15,4.02   c-0.77,1.04-1.79,1.75-3.07,2.16l1.41,0.89l4.59,7.67h-4.54l-4.57-7.87l-2.07-0.37v8.24h-3.94V237.62L808.17,237.62z M814.2,240.63   c-0.4,0-0.8,0.01-1.19,0.03c-0.39,0.02-0.69,0.06-0.9,0.12v5.83h1.66c1.09,0,1.97-0.25,2.62-0.75c0.65-0.5,0.98-1.32,0.98-2.47   c0-0.86-0.27-1.54-0.8-2.02S815.23,240.63,814.2,240.63L814.2,240.63z"/>
	<path class="st1" d="M364.53,333.53c0-9.69,3.29-10.83,12.32-10.83c5.09,0,9.86,0.19,13.64,1.33v18.42   c-3.94,1.71-9.2,2.66-13.97,2.66C366.67,345.12,364.53,343.41,364.53,333.53L364.53,333.53z M414.49,302.01   c0-28.87-11.83-37.8-36.97-37.8c-12.49,0-26.45,2.28-36.15,5.13l3.94,23.17c7.06-2.47,16.43-4.56,26.12-4.56   c16.43,0,19.06,3.8,19.06,17.28c-6.41-1.52-12.82-2.47-19.06-2.47c-20.05,0-32.86,4.37-32.86,31.72c0,25.45,8.22,32.29,35.98,32.29   c12.32,0,28.59-2.85,39.93-7.6V302.01L414.49,302.01z"/>
	<path class="st1" d="M233.65,291.94c4.11-1.14,7.89-1.71,12-1.71c12.32,0,14.79,4.75,14.79,22.41v51.47h25.3v-53.75   c0-34.95-11.5-46.15-34.67-46.15c-15.12,0-31.88,4.18-42.72,8.74v91.16h25.3V291.94L233.65,291.94z"/>
	<path class="st1" d="M161.08,286.24c9.86,0,13.64,2.85,13.97,16.33H145.8C147.28,290.23,150.57,286.24,161.08,286.24L161.08,286.24   z M187.54,339.23c-6.24,1.9-17.25,3.23-23.33,3.23c-12.16,0-18.24-2.85-18.57-18.42h51.43c2.3-49.95-9.86-59.83-37.79-59.83   c-24.15,0-39.6,11.59-39.6,50.71c0,39.88,17.58,51.85,41.24,51.85c9.53,0,22.02-2.09,30.4-5.32L187.54,339.23L187.54,339.23z"/>
	<path class="st1" d="M82.23,297.64c0,34.19-6.08,39.5-29.25,39.5H34.74v-78.63h18.24C76.15,258.51,82.23,262.31,82.23,297.64   L82.23,297.64z M8.29,231.73v132.38H56.1c36.64,0,54.39-15.38,54.39-66.85c0-51.66-17.75-65.52-54.39-65.52H8.29L8.29,231.73z"/>
	<path class="st2" d="M499.57,297.64v-39.69h28.59c7.23,0,11.17,5.89,11.17,20.32c0,13.86-4.6,19.37-11.5,19.37H499.57   L499.57,297.64z M499.57,364.11V322.9h37.63c21.36,0,31.22-20.7,31.22-44.63c0-27.16-7.89-46.53-31.38-46.53h-63.92v132.38H499.57   L499.57,364.11z M625.01,324.83l23.6,39.29h31.24l-23.41-39.29H625.01L625.01,324.83z M738,228.5c-36.81,0-55.7,14.24-55.7,67.99   c0,54.51,18.9,70.27,55.7,70.27c36.64,0,55.7-15.76,55.7-70.27C793.7,242.75,774.64,228.5,738,228.5L738,228.5z M738,338.85   c-23.17,0-27.44-5.32-27.44-41.97c0-36.08,4.27-40.26,27.44-40.26c23.17,0,27.44,4.18,27.44,40.26   C765.44,333.53,761.17,338.85,738,338.85L738,338.85z"/>
	<path class="st1" d="M275.63,231.68l-18.99,24.96c12.37,0,56.54,0,92.85,0l19.56-24.96c-36.3,0-57.75,0-69.64,0H275.63   L275.63,231.68z"/>
	<path class="st1" d="M149.71,231.68l-19.56,24.96c12.37,0,73.44,0,109.75,0l19.56-24.96c-36.3,0-57.75,0-69.64,0H149.71   L149.71,231.68z"/>
	<path class="st2" d="M364.49,257.38c5.12,0,17.3,0,36.54,0l19.36-25.71c-18.9,0-30.79,0-35.7,0L364.49,257.38L364.49,257.38z"/>
	<polygon class="st3" points="452.97,231.42 427.66,231.42 427.66,364.11 452.97,364.11 452.97,231.42  "/>
	<polygon class="st3" points="325.49,231.68 300.19,231.68 300.19,364.11 325.49,364.11 325.49,231.68  "/>
	<path class="st2" d="M604.17,363.82v-47.1h37.63c21.36,0,31.22-18.33,31.22-42.26c0-27.16-7.89-43.02-31.38-43.02h-63.92v132.38   H604.17L604.17,363.82z M604.17,291.46v-33.81h28.59c7.23,0,11.17,5.01,11.17,17.31c0,11.81-4.6,16.5-11.5,16.5H604.17   L604.17,291.46z"/>
</g>
</svg>